<svg width="12" height="12" viewBox="0 0 12 12" fill="none" xmlns="http://www.w3.org/2000/svg">
<g clip-path="url(#clip0_770_29719)">
<path d="M9.61853 5.8125H9.2603C10.349 4.9015 9.68806 3.06778 8.24979 3.07536L5.59607 3.07535C5.65216 2.97093 5.68145 2.85421 5.68131 2.73568V0.9375C5.68131 0.887772 5.66155 0.840081 5.62639 0.804918C5.59123 0.769754 5.54353 0.75 5.49381 0.75C5.44408 0.75 5.39639 0.769754 5.36122 0.804918C5.32606 0.840081 5.30631 0.887772 5.30631 0.9375V2.73569C5.307 2.82494 5.27227 2.91082 5.20972 2.97449C5.14718 3.03817 5.06194 3.07444 4.97269 3.07535H4.55593C4.5062 3.07535 4.45851 3.0951 4.42335 3.13027C4.38819 3.16543 4.36843 3.21312 4.36843 3.26285C4.36843 3.31258 4.38819 3.36027 4.42335 3.39543C4.45851 3.43059 4.5062 3.45035 4.55593 3.45035H8.24982C9.81266 3.5059 9.81336 5.75687 8.2498 5.8125H3.83276C3.78304 5.8125 3.73534 5.83226 3.70018 5.86742C3.66502 5.90258 3.64526 5.95027 3.64526 6C3.64526 6.04973 3.66502 6.09742 3.70018 6.13258C3.73534 6.16775 3.78304 6.1875 3.83276 6.1875H9.61853C11.2827 6.24554 11.2858 8.64614 9.61851 8.70539H5.81242C5.77446 8.69223 5.73319 8.69223 5.69523 8.70539H3.1095C3.05977 8.70539 3.01208 8.72514 2.97691 8.7603C2.94175 8.79547 2.922 8.84316 2.922 8.89289C2.922 8.94261 2.94175 8.99031 2.97691 9.02547C3.01208 9.06063 3.05977 9.08039 3.1095 9.08039H5.7586C6.6408 9.33201 7.11618 10.1687 7.03617 11.0625C7.03696 11.1117 7.05707 11.1586 7.09215 11.1932C7.12723 11.2277 7.17447 11.247 7.22369 11.247C7.2729 11.247 7.32014 11.2277 7.35522 11.1931C7.3903 11.1586 7.4104 11.1117 7.41119 11.0625C7.4496 10.6886 7.39331 10.3111 7.24752 9.96476C7.10173 9.61838 6.87113 9.31425 6.57694 9.08039H9.61853C11.7832 8.99512 11.7851 5.89851 9.61853 5.8125Z" fill="#5A1903" stroke="#5A1903" stroke-width="0.3"/>
<path d="M5.27918 10.1523H2.37878C2.047 10.1519 1.72891 10.0199 1.49431 9.78532C1.2597 9.55071 1.12773 9.23263 1.12735 8.90084C1.12893 8.56552 1.26287 8.24439 1.50004 8.00733C1.73721 7.77027 2.0584 7.63647 2.39372 7.63505C3.2323 7.6344 8.65326 7.64037 9.61841 7.64089C9.64395 7.64089 9.66922 7.63567 9.69267 7.62556C9.71612 7.61544 9.73726 7.60065 9.75479 7.58208C9.77233 7.56352 9.78589 7.54156 9.79464 7.51757C9.8034 7.49358 9.80716 7.46806 9.80571 7.44256C9.80108 7.3952 9.77937 7.35115 9.74463 7.31864C9.70988 7.28613 9.66449 7.26738 9.61693 7.2659C9.47081 7.26499 3.73696 7.26153 3.70838 7.26023C3.40237 7.25268 3.11167 7.12482 2.89929 6.90438C2.68691 6.68394 2.56997 6.38868 2.57382 6.0826C2.57767 5.77652 2.70199 5.4843 2.91985 5.26926C3.1377 5.05423 3.43152 4.93373 3.73763 4.93387C3.76994 4.93537 4.99896 4.93278 4.9435 4.93387C5.01782 4.93565 8.17159 4.93297 8.18299 4.93356C8.23122 4.92994 8.2762 4.90784 8.30853 4.87186C8.34086 4.83589 8.35804 4.78881 8.35649 4.74047C8.35494 4.69212 8.33478 4.64625 8.30022 4.61241C8.26565 4.57858 8.21936 4.5594 8.17099 4.55888C8.04729 4.56257 4.98152 4.55658 4.91277 4.55857C4.21148 4.55819 3.64171 3.97489 3.65989 3.38817C3.6602 3.33242 3.66004 0.935212 3.65957 0.926958C3.65582 0.878849 3.63368 0.834035 3.59775 0.801825C3.56182 0.769615 3.51486 0.752487 3.46663 0.753998C3.41839 0.75551 3.3726 0.775546 3.33876 0.809942C3.30491 0.844339 3.28562 0.890452 3.28489 0.938701V3.00595C3.28596 3.27856 3.28377 3.34638 3.28527 3.42224C3.29271 3.64235 3.34825 3.85816 3.44798 4.05452C3.54772 4.25087 3.68923 4.42302 3.86258 4.55886C3.82808 4.56005 3.73766 4.55778 3.70729 4.55915C2.29719 4.57907 1.67913 6.37567 2.73283 7.26018C0.27933 7.04108 0.0535503 10.3907 2.37965 10.5273C2.45424 10.5276 5.28062 10.5267 5.2979 10.5276C5.43849 10.5328 5.57142 10.593 5.66814 10.6951C5.76486 10.7973 5.81765 10.9333 5.81516 11.074C5.8181 11.1236 5.84063 11.1701 5.87779 11.2031C5.91496 11.2361 5.96372 11.253 6.01336 11.2501C6.03907 11.2484 6.06417 11.2415 6.08712 11.2298C6.11008 11.2181 6.13041 11.2019 6.14689 11.182C6.16336 11.1622 6.17564 11.1393 6.18297 11.1146C6.1903 11.0899 6.19252 11.0639 6.18951 11.0383C6.18283 10.8012 6.08403 10.5761 5.91406 10.4107C5.7441 10.2452 5.51636 10.1525 5.27918 10.1523Z" fill="#5A1903" stroke="#5A1903" stroke-width="0.3"/>
</g>
<defs>
<clipPath id="clip0_770_29719">
<rect width="12" height="12" fill="white"/>
</clipPath>
</defs>
</svg>
