<svg width="18" height="18" viewBox="0 0 18 18" fill="none" xmlns="http://www.w3.org/2000/svg">
<path fill-rule="evenodd" clip-rule="evenodd" d="M6.74285 5.53666C6.82079 5.38344 7.0622 5.34431 7.26938 5.45073C7.37584 5.50606 7.46137 5.59426 7.5032 5.6929C7.52412 5.74175 7.55263 5.83812 7.50511 5.93014C7.45759 6.02176 7.36255 6.05484 7.31122 6.06661C7.20667 6.08962 7.08503 6.07137 6.97858 6.01568C6.77136 5.90922 6.663 5.68966 6.74285 5.53666ZM6.75995 6.43691C6.90632 6.51179 7.0622 6.55038 7.21805 6.55038C7.28267 6.55038 7.3492 6.54354 7.41385 6.52929C7.64004 6.47892 7.82634 6.33996 7.9252 6.14722C8.02596 5.95466 8.02974 5.72181 7.94039 5.50815C7.85485 5.30626 7.69328 5.13634 7.48607 5.02953C7.04507 4.80143 6.52235 4.93125 6.32086 5.3194C6.12127 5.70737 6.31704 6.20878 6.75995 6.43691ZM9.58465 5.7699C9.59607 5.7699 9.60557 5.77026 9.61507 5.77048H9.61889C10.2195 5.78283 10.6758 6.10103 11.0103 6.74334C11.4095 7.50712 11.3848 7.83425 11.3335 7.96122C11.2422 8.18684 11.1358 8.19922 10.6929 8.03517C10.6302 8.0118 10.5712 7.98992 10.5123 7.97206C9.99336 7.80992 9.43831 7.80574 8.86235 7.95932C8.7559 7.98783 8.64945 8.02944 8.5449 8.06994C8.38333 8.13381 8.15902 8.22107 8.07921 8.17676C8.06398 8.16765 8.00886 8.12373 7.97466 7.93343C7.94424 7.76236 7.97657 7.43634 8.2978 6.85433C8.29971 6.853 8.29971 6.85185 8.29971 6.85055C8.68174 6.13332 9.11323 5.7699 9.58465 5.7699ZM7.88336 6.6266C7.56592 7.19874 7.44427 7.65342 7.50889 8.01652C7.56023 8.30319 7.67046 8.49042 7.84726 8.59C7.94039 8.64191 8.03734 8.66243 8.1381 8.66243C8.332 8.66243 8.53349 8.58374 8.71784 8.5113C8.81288 8.47404 8.90411 8.43869 8.98396 8.41742C9.47248 8.28702 9.94008 8.28951 10.3716 8.42447C10.4172 8.43912 10.4704 8.45867 10.5275 8.47941C10.7137 8.5486 10.9266 8.62729 11.1433 8.61873C11.3467 8.61055 11.6205 8.52063 11.7725 8.13762C11.9189 7.77226 11.8067 7.24421 11.4304 6.52418C11.0141 5.72598 10.4096 5.31296 9.62836 5.29679C8.95167 5.27566 8.36238 5.72274 7.88336 6.6266ZM8.35669 4.15548C8.37189 4.10494 8.41562 4.01426 8.51066 3.97664C8.53918 3.96562 8.56769 3.96065 8.59811 3.96065C8.73876 3.96065 8.89464 4.08042 8.96498 4.25945C9.00869 4.37199 9.01441 4.49457 8.98018 4.59609C8.96308 4.64645 8.92124 4.73732 8.8243 4.77515C8.72926 4.81281 8.63613 4.77555 8.5886 4.74948C8.49547 4.69836 8.41562 4.60444 8.37192 4.49212C8.32818 4.37958 8.32246 4.257 8.35669 4.15548ZM8.36047 5.16503C8.16848 5.05991 8.01642 4.88218 7.93088 4.66532C7.84535 4.44806 7.83775 4.21406 7.90619 4.00608C7.9784 3.78616 8.13619 3.61451 8.33768 3.53524C8.74448 3.37576 9.22347 3.62304 9.40595 4.08629C9.48958 4.30337 9.49908 4.53755 9.43065 4.74549C9.35843 4.96541 9.20064 5.13688 8.99724 5.21615C8.91549 5.24848 8.82808 5.26464 8.73873 5.26464C8.61139 5.26464 8.48212 5.2312 8.36047 5.16503ZM10.3621 4.24844C10.4267 4.0616 10.5807 3.93365 10.727 3.93365C10.7517 3.93365 10.7784 3.93747 10.8031 3.946C10.9646 4.00187 11.0388 4.23476 10.9627 4.45468C10.9247 4.56909 10.8487 4.66643 10.7574 4.72176C10.7118 4.74952 10.6206 4.79096 10.5236 4.75751C10.3602 4.7016 10.286 4.46836 10.3621 4.24844ZM10.3697 5.20589C10.4438 5.23116 10.5218 5.24333 10.5978 5.24333C10.7366 5.24333 10.8772 5.20398 11.0046 5.1268C11.1909 5.01333 11.3372 4.82912 11.4114 4.60862C11.5729 4.13777 11.3695 3.63917 10.9552 3.49755C10.5427 3.35574 10.0751 3.62358 9.91351 4.09479C9.75191 4.5657 9.95722 5.06391 10.3697 5.20589ZM11.8258 5.70316C11.8638 5.60337 11.9455 5.51193 12.0519 5.45264C12.1337 5.40587 12.223 5.38344 12.3067 5.38344C12.4264 5.38344 12.531 5.43021 12.5804 5.51898C12.6317 5.60909 12.607 5.7064 12.588 5.75601C12.55 5.8558 12.4682 5.94706 12.3637 6.00653C12.2591 6.06582 12.1375 6.08901 12.0329 6.06964C11.9797 6.05996 11.8847 6.03029 11.8334 5.94018C11.7839 5.85011 11.8068 5.75316 11.8258 5.70316ZM11.4209 6.17307C11.5273 6.36181 11.7193 6.49411 11.9474 6.53573C12.0006 6.54563 12.0539 6.55038 12.109 6.55038C12.2744 6.55038 12.4435 6.50571 12.5975 6.4196C12.799 6.30479 12.9549 6.12915 13.0328 5.92442C13.1145 5.70734 13.1012 5.47467 12.9948 5.2861C12.78 4.90594 12.2516 4.79531 11.8182 5.03993C11.6148 5.15438 11.4608 5.33038 11.3829 5.53511C11.3011 5.75183 11.3144 5.98432 11.4209 6.17307ZM11.9018 14.1152V13.0034L12.8484 12.9992C12.8693 13.3765 12.9568 13.7917 13.2419 14.1072L11.9018 14.1152ZM11.4266 15.9613L10.2975 14.6919C10.2518 14.6414 10.1891 14.6127 10.1207 14.6127C10.0523 14.6127 9.98764 14.6413 9.9439 14.6919L8.81289 15.9613V13.0175L11.4266 13.0057V15.9613ZM5.43508 14.1557L8.33959 14.1376V13.0197L5.86466 13.0307C5.73352 13.0307 5.62706 12.9256 5.62706 12.7952C5.62706 12.6643 5.73161 12.5574 5.86276 12.5569L12.8617 12.5249C12.9283 12.1328 13.1412 11.711 13.4016 11.3719H5.43695C4.669 11.3719 4.04551 11.9967 4.04551 12.7639C4.04551 13.1371 4.19189 13.4883 4.458 13.7535C4.72033 14.0134 5.06438 14.1557 5.42744 14.1557C5.42935 14.1557 5.43317 14.1557 5.43508 14.1557ZM4.04555 3.04557C4.04555 2.3588 4.54548 1.78683 5.19938 1.67411V10.9138C4.74319 10.972 4.3383 11.1957 4.04555 11.523V3.04557ZM13.7114 10.898V1.65359H5.67458V10.898H13.7114ZM14.2341 14.1049C13.5821 13.9867 13.3141 13.5974 13.3141 12.761C13.3141 12.2893 13.7209 11.6333 14.1011 11.317C14.1524 11.2736 14.1809 11.2114 14.1847 11.1463C14.1847 11.1394 14.1847 11.1324 14.1847 11.1256V1.41653C14.1847 1.28574 14.0782 1.17969 13.949 1.17969H5.43695C4.40857 1.17969 3.57031 2.01665 3.57031 3.04557V12.7639C3.57031 13.264 3.76799 13.7349 4.12536 14.0894C4.4751 14.4382 4.93702 14.6298 5.42744 14.6298H5.43886L8.33956 14.6118V16.5839C8.33956 16.6822 8.4004 16.7702 8.49162 16.8053C8.52013 16.8158 8.54865 16.8208 8.57716 16.8208C8.64178 16.8208 8.7083 16.793 8.75395 16.7415L10.1207 15.2062L11.4874 16.7415C11.552 16.8148 11.6565 16.8403 11.7497 16.8053C11.8409 16.7702 11.9017 16.6822 11.9017 16.5839V14.5897L14.1942 14.5751C14.3158 14.5745 14.4185 14.4806 14.428 14.3587C14.4394 14.2367 14.3558 14.1266 14.2341 14.1049Z" fill="#5A1903" stroke="#5A1903" stroke-width="0.2"/>
</svg>
