<svg width="44" height="44" viewBox="0 0 44 44" fill="none" xmlns="http://www.w3.org/2000/svg">
<path d="M38.623 33.7845C38.3012 33.5549 37.8459 33.6187 37.6062 33.9269C33.7776 38.8474 27.9109 41.6694 21.5104 41.6694C20.0932 41.6694 18.6818 41.526 17.3077 41.2457C17.3182 40.9647 17.2849 40.6807 17.2067 40.4014C17.0003 39.6641 16.5064 39.0477 15.8159 38.6661C15.1253 38.2844 14.3209 38.1831 13.5506 38.3805C12.7803 38.5781 12.1366 39.051 11.7379 39.7121C11.3391 40.3732 11.2332 41.1433 11.4397 41.8806C11.646 42.6179 12.14 43.2343 12.8306 43.6159C13.2905 43.8701 13.8011 44 14.3183 44C14.5776 44 14.8387 43.9674 15.0958 43.9014C15.8604 43.7053 16.5001 43.2376 16.8994 42.5841C18.4062 42.8991 19.9552 43.0607 21.5103 43.0607C24.9666 43.0607 28.2678 42.2996 31.3218 40.7985C34.2347 39.3669 36.8108 37.278 38.7716 34.758C39.0114 34.4499 38.9448 34.0141 38.6229 33.7846L38.623 33.7845ZM15.6499 41.8743C15.4454 42.2135 15.115 42.4562 14.7197 42.5576C14.3243 42.6589 13.9117 42.6069 13.5572 42.4111C13.2028 42.2152 12.9494 41.899 12.8435 41.5206C12.7376 41.1421 12.792 40.7469 12.9965 40.4077C13.2011 40.0685 13.5314 39.8258 13.9267 39.7244C14.0587 39.6905 14.1926 39.6738 14.3258 39.6738C14.5912 39.6738 14.8532 39.7405 15.0893 39.8709C15.4436 40.0668 15.6972 40.383 15.8031 40.7614C15.909 41.1399 15.8546 41.535 15.65 41.8743H15.6499ZM42.523 26.8828C42.852 25.4402 43.0206 23.9575 43.0206 22.4687C43.0206 17.5804 41.2 12.8415 37.8939 9.12505C34.6254 5.45069 30.1036 2.98143 25.1616 2.17231C24.793 2.11188 24.4367 2.32935 24.3382 2.67456L22.3241 9.72965C21.894 11.2362 20.3479 12.9621 18.7275 13.7442C16.9555 14.5995 15.7025 16.1082 14.9934 18.2358C12.7732 18.9136 11.1955 20.1141 10.3025 21.8096C9.48548 23.3607 7.68254 24.841 6.10886 25.2527L1.87352 26.3607C1.59684 25.0884 1.4535 23.7845 1.4535 22.4686C1.4535 14.1742 7.13999 6.72988 15.3439 4.19306C15.8456 5.09774 16.8397 5.71564 17.9821 5.71564C19.6282 5.71564 20.9675 4.43357 20.9675 2.85778C20.9675 1.28198 19.6281 0 17.9821 0C16.336 0 15.0086 1.27128 14.9973 2.83795C10.8045 4.11393 7.04308 6.65492 4.36796 10.0279C1.51046 13.631 0 17.9329 0 22.4686C0 25.3886 0.625565 28.2104 1.85944 30.8558C3.05116 33.411 4.74746 35.6743 6.90129 37.5831C7.03745 37.7038 7.21439 37.7682 7.39496 37.7682C7.46281 37.7682 7.53121 37.7592 7.59816 37.7405L10.1604 37.026C12.3816 36.4128 13.7893 36.2053 15.7378 35.918C16.5266 35.8016 17.4206 35.6698 18.4749 35.494C22.5064 34.8213 26.3874 33.5698 27.8689 33.063L29.8016 32.4018C30.8407 32.1268 31.5685 31.496 31.8003 30.6675C31.9866 30.0021 31.8301 29.2901 31.3928 28.748C31.8162 28.5451 32.1694 28.2278 32.4125 27.8248C32.7397 27.2822 32.827 26.6517 32.6585 26.0495C32.5507 25.6644 32.3456 25.3197 32.0634 25.0389C32.3375 24.8426 32.5702 24.5931 32.7471 24.3C33.0894 23.7326 33.1806 23.0734 33.0044 22.4439C32.8829 22.0099 32.6457 21.6347 32.3336 21.3397C32.605 21.1441 32.8357 20.8961 33.0111 20.6051C33.3532 20.0377 33.4446 19.3785 33.2684 18.7491C33.1527 18.3355 32.9191 17.9568 32.6022 17.6539L36.3156 9.48618C39.6002 12.9217 41.5673 17.4945 41.5673 22.4687C41.5673 23.8261 41.4176 25.1777 41.1246 26.4941C40.0559 26.4583 39.0009 26.9735 38.43 27.9201C38.0313 28.5812 37.9253 29.3513 38.1317 30.0887C38.3381 30.826 38.8321 31.4423 39.5227 31.824C39.9917 32.0832 40.5041 32.2062 41.0103 32.2062C42.0428 32.2062 43.0484 31.6936 43.6007 30.7779C44.4208 29.418 43.9368 27.6746 42.523 26.8827V26.8828ZM17.9821 1.39128C18.8268 1.39128 19.514 2.04918 19.514 2.85786C19.514 3.66654 18.8268 4.32444 17.9821 4.32444C17.1373 4.32444 16.4501 3.66654 16.4501 2.85786C16.4501 2.04918 17.1373 1.39128 17.9821 1.39128ZM31.7525 19.9096C31.6044 20.1551 31.3672 20.3302 31.0845 20.4027L29.8745 20.713C29.8745 20.713 29.8737 20.7132 29.8732 20.7133C29.8731 20.7133 29.8729 20.7135 29.8726 20.7135L25.725 21.7774C25.3373 21.8768 25.1073 22.2582 25.2112 22.6293C25.3151 23.0005 25.7136 23.2205 26.1011 23.1212L30.2499 22.057C30.8373 21.9068 31.4431 22.2416 31.6005 22.8039C31.6763 23.0745 31.6364 23.3588 31.4883 23.6044C31.3403 23.8499 31.103 24.0251 30.8204 24.0976L29.6635 24.3943L25.3934 25.4896C25.0057 25.5891 24.7757 25.9705 24.8795 26.3416C24.9665 26.6524 25.2601 26.8574 25.581 26.8574C25.6433 26.8574 25.7066 26.8497 25.7695 26.8336L30.0407 25.7381C30.2941 25.6734 30.5604 25.7079 30.791 25.8355C31.022 25.9631 31.1866 26.1671 31.2545 26.4097C31.3227 26.653 31.2868 26.9086 31.1537 27.1293C31.0205 27.35 30.8073 27.5075 30.5532 27.5727L28.9193 27.9919C28.9193 27.9919 28.9185 27.992 28.918 27.9921C28.9178 27.9921 28.9176 27.9923 28.9173 27.9924L25.1448 28.9601C24.7571 29.0596 24.5271 29.441 24.6309 29.8121C24.7179 30.1229 25.0115 30.3279 25.3324 30.3279C25.3946 30.3279 25.458 30.3202 25.5209 30.3041L29.2949 29.336C29.7409 29.2217 30.0168 29.3725 30.1699 29.519C30.3842 29.7243 30.4732 30.0337 30.3965 30.3076C30.299 30.6561 29.9435 30.9254 29.3955 31.0659C29.3764 31.0708 29.3576 31.0764 29.339 31.0828L27.3798 31.753C25.9336 32.2478 22.1463 33.4691 18.2253 34.1234C17.1851 34.297 16.2986 34.4277 15.5164 34.543C13.5898 34.8271 12.0681 35.0515 9.7557 35.6898L7.59125 36.2934C5.02668 33.925 3.18369 30.9493 2.22041 27.7123L6.49181 26.5947C8.48432 26.0734 10.5849 24.3633 11.6001 22.436C12.2002 21.2966 13.1739 20.4532 14.5552 19.8764L13.1633 25.622C13.0042 26.279 13.1491 26.8955 13.5715 27.3582C13.9811 27.8067 14.6312 28.0686 15.3096 28.0686C15.3878 28.0686 15.4664 28.0652 15.5449 28.058C18.1704 27.8216 18.8448 25.943 19.4396 24.2855C19.8057 23.2658 20.1841 22.2113 20.9872 21.4334C21.8713 20.5769 23.0152 20.2845 24.2261 19.975L30.4765 18.3718C30.9234 18.3061 31.0901 18.3655 31.377 18.4866C31.6165 18.6297 31.7933 18.8548 31.8645 19.1092C31.9402 19.3798 31.9004 19.6641 31.7523 19.9096H31.7525ZM31.3138 17.0017C31.028 16.9461 30.6774 16.9307 30.2084 17.0039C30.1844 17.0076 30.1607 17.0125 30.1372 17.0185L23.8514 18.6309C22.5062 18.9747 21.1152 19.3303 19.9537 20.4555C18.9176 21.4592 18.4648 22.7206 18.0654 23.8334C17.4316 25.5991 17.0257 26.5273 15.409 26.6728C15.1145 26.6995 14.8159 26.6067 14.6658 26.4425C14.625 26.3977 14.5004 26.2614 14.5791 25.9362L16.1444 19.4746C16.6845 17.2453 17.7434 15.7773 19.3818 14.9865C21.3951 14.0147 23.1815 12.0038 23.726 10.0964L25.5634 3.65985C29.2865 4.38818 32.5896 6.07441 35.2146 8.42168L31.3137 17.0018L31.3138 17.0017ZM42.3421 30.0822C42.1376 30.4215 41.8072 30.6642 41.4119 30.7655C41.0166 30.8669 40.6038 30.8149 40.2494 30.619C39.8951 30.4232 39.6416 30.1069 39.5357 29.7285C39.4297 29.3501 39.4842 28.9549 39.6887 28.6157C39.9721 28.1457 40.4881 27.8826 41.018 27.8826C41.2776 27.8826 41.5408 27.9459 41.7814 28.0788C42.513 28.4831 42.7645 29.3819 42.3421 30.0822Z" fill="#B57F80"/>
</svg>
