<svg width="18" height="18" viewBox="0 0 18 18" fill="none" xmlns="http://www.w3.org/2000/svg">
<path d="M9 4.3125C8.6925 4.3125 8.4375 4.0575 8.4375 3.75V2.625C8.4375 2.3175 8.6925 2.0625 9 2.0625C9.3075 2.0625 9.5625 2.3175 9.5625 2.625V3.75C9.5625 4.0575 9.3075 4.3125 9 4.3125Z" fill="#E7B123"/>
<path d="M3 10.3125H1.875C1.5675 10.3125 1.3125 10.0575 1.3125 9.75C1.3125 9.4425 1.5675 9.1875 1.875 9.1875H3C3.3075 9.1875 3.5625 9.4425 3.5625 9.75C3.5625 10.0575 3.3075 10.3125 3 10.3125Z" fill="#E7B123"/>
<path d="M16.125 10.3125H15C14.6925 10.3125 14.4375 10.0575 14.4375 9.75C14.4375 9.4425 14.6925 9.1875 15 9.1875H16.125C16.4325 9.1875 16.6875 9.4425 16.6875 9.75C16.6875 10.0575 16.4325 10.3125 16.125 10.3125Z" fill="#E7B123"/>
<path d="M13.2452 6.06754C13.1027 6.06754 12.9602 6.01504 12.8477 5.90254C12.6302 5.68504 12.6302 5.32504 12.8477 5.10754L13.6427 4.31254C13.8602 4.09504 14.2202 4.09504 14.4377 4.31254C14.6552 4.53004 14.6552 4.89004 14.4377 5.10754L13.6427 5.90254C13.5302 6.01504 13.3877 6.06754 13.2452 6.06754Z" fill="#E7B123"/>
<path d="M4.75504 6.06754C4.61254 6.06754 4.47004 6.01504 4.35754 5.90254L3.56254 5.10754C3.34504 4.89004 3.34504 4.53004 3.56254 4.31254C3.78004 4.09504 4.14004 4.09504 4.35754 4.31254L5.15254 5.10754C5.37004 5.32504 5.37004 5.68504 5.15254 5.90254C5.04004 6.01504 4.89754 6.06754 4.75504 6.06754Z" fill="#E7B123"/>
<path d="M12.18 12.9375H5.82C5.655 12.9375 5.4975 12.8625 5.385 12.735C4.695 11.9025 4.3125 10.8375 4.3125 9.75C4.3125 7.1625 6.4125 5.0625 9 5.0625C11.5875 5.0625 13.6875 7.1625 13.6875 9.75C13.6875 10.8375 13.305 11.9025 12.615 12.735C12.51 12.8625 12.3525 12.9375 12.18 12.9375ZM6.0975 11.8125H11.9025C12.33 11.2125 12.5625 10.4925 12.5625 9.75C12.5625 7.785 10.965 6.1875 9 6.1875C7.035 6.1875 5.4375 7.785 5.4375 9.75C5.4375 10.4925 5.67 11.2125 6.0975 11.8125Z" fill="#E7B123"/>
<path d="M16.5 12.9375H1.5C1.1925 12.9375 0.9375 12.6825 0.9375 12.375C0.9375 12.0675 1.1925 11.8125 1.5 11.8125H16.5C16.8075 11.8125 17.0625 12.0675 17.0625 12.375C17.0625 12.6825 16.8075 12.9375 16.5 12.9375Z" fill="#E7B123"/>
<path d="M12.75 15.9375H5.25C4.9425 15.9375 4.6875 15.6825 4.6875 15.375C4.6875 15.0675 4.9425 14.8125 5.25 14.8125H12.75C13.0575 14.8125 13.3125 15.0675 13.3125 15.375C13.3125 15.6825 13.0575 15.9375 12.75 15.9375Z" fill="#E7B123"/>
</svg>
