<svg width="26" height="26" viewBox="0 0 26 26" fill="none" xmlns="http://www.w3.org/2000/svg">
<path d="M25.986 0.943685C25.9741 0.850321 25.9535 0.760396 25.9193 0.676025C25.9183 0.67391 25.9183 0.671 25.9177 0.668355C25.9177 0.667826 25.9172 0.667297 25.9167 0.666768C25.8791 0.577901 25.8278 0.497233 25.7699 0.422384C25.7556 0.404663 25.7416 0.387207 25.7265 0.370544C25.6646 0.30072 25.5975 0.236186 25.5194 0.183553C25.5173 0.181966 25.5147 0.181437 25.5126 0.17985C25.4372 0.130127 25.3539 0.09257 25.2666 0.0629476C25.2449 0.0552775 25.2237 0.0486654 25.2015 0.0428466C25.11 0.017985 25.0159 0 24.9167 0H17.3333C16.7353 0 16.25 0.485331 16.25 1.08333C16.25 1.68134 16.7353 2.16667 17.3333 2.16667H22.3009L15.835 8.63255C14.1108 7.25352 11.9881 6.5 9.75 6.5C4.37406 6.5 0 10.8741 0 16.25C0 21.6259 4.37406 26 9.75 26C15.1259 26 19.5 21.6259 19.5 16.25C19.5 14.013 18.747 11.8907 17.3669 10.165L23.8333 3.69857V8.66667C23.8333 9.26467 24.3187 9.75 24.9167 9.75C25.5147 9.75 26 9.26467 26 8.66667V1.08333C26 1.06059 25.9947 1.0389 25.9934 1.01668C25.9918 0.991821 25.9892 0.968018 25.986 0.943685ZM9.75 23.8333C5.56822 23.8333 2.16667 20.4318 2.16667 16.25C2.16667 12.0682 5.56822 8.66667 9.75 8.66667C11.7746 8.66667 13.6808 9.45483 15.114 10.8831C16.5452 12.3192 17.3333 14.2254 17.3333 16.25C17.3333 20.4318 13.9318 23.8333 9.75 23.8333Z" fill="#B3958B"/>
</svg>
