<svg width="13" height="13" viewBox="0 0 13 13" fill="none" xmlns="http://www.w3.org/2000/svg">
<path d="M12.0687 3.36905L9.63115 0.931554C9.59341 0.893809 9.5486 0.863868 9.49928 0.843441C9.44997 0.823014 9.39711 0.8125 9.34373 0.8125C9.29035 0.8125 9.2375 0.823014 9.18818 0.843441C9.13886 0.863868 9.09405 0.893809 9.05631 0.931554C9.01856 0.969299 8.98862 1.01411 8.9682 1.06342C8.94777 1.11274 8.93725 1.1656 8.93725 1.21898C8.93725 1.27236 8.94777 1.32521 8.9682 1.37453C8.98862 1.42384 9.01856 1.46865 9.05631 1.5064L9.98815 2.43773L8.53123 3.89464L6.7874 2.1503C6.71117 2.07407 6.60779 2.03125 6.49998 2.03125C6.39218 2.03125 6.28879 2.07407 6.21256 2.1503C6.13633 2.22653 6.09351 2.32992 6.09351 2.43773C6.09351 2.54553 6.13633 2.64892 6.21256 2.72515L6.53502 3.0471L2.2694 7.31273C2.19362 7.3879 2.13354 7.47739 2.09266 7.57598C2.05177 7.67458 2.03089 7.78032 2.03123 7.88706V10.3946L0.93131 11.4941C0.893565 11.5318 0.863624 11.5766 0.843197 11.6259C0.82277 11.6752 0.812256 11.7281 0.812256 11.7815C0.812256 11.8349 0.82277 11.8877 0.843197 11.937C0.863624 11.9863 0.893565 12.0312 0.93131 12.0689C1.00754 12.1451 1.11093 12.188 1.21873 12.188C1.27211 12.188 1.32497 12.1774 1.37428 12.157C1.4236 12.1366 1.46841 12.1066 1.50615 12.0689L2.60557 10.969H5.11315C5.21988 10.9693 5.32562 10.9484 5.42422 10.9076C5.52282 10.8667 5.61231 10.8066 5.68748 10.7308L9.95311 6.46519L10.2751 6.78765C10.3128 6.82539 10.3576 6.85533 10.4069 6.87576C10.4562 6.89619 10.5091 6.9067 10.5625 6.9067C10.6159 6.9067 10.6687 6.89619 10.718 6.87576C10.7673 6.85533 10.8122 6.82539 10.8499 6.78765C10.8876 6.7499 10.9176 6.70509 10.938 6.65578C10.9584 6.60646 10.969 6.5536 10.969 6.50023C10.969 6.44685 10.9584 6.39399 10.938 6.34467C10.9176 6.29536 10.8876 6.25055 10.8499 6.2128L9.10557 4.46898L10.5625 3.01206L11.4938 3.9439C11.57 4.02013 11.6734 4.06295 11.7812 4.06295C11.889 4.06295 11.9924 4.02013 12.0687 3.9439C12.1449 3.86767 12.1877 3.76428 12.1877 3.65648C12.1877 3.54867 12.1449 3.44528 12.0687 3.36905ZM5.11315 10.1565H2.84373V7.88706L3.75779 6.973L4.79068 8.0064C4.82843 8.04414 4.87324 8.07408 4.92255 8.09451C4.97187 8.11494 5.02473 8.12545 5.07811 8.12545C5.13149 8.12545 5.18434 8.11494 5.23366 8.09451C5.28297 8.07408 5.32778 8.04414 5.36553 8.0064C5.40327 7.96865 5.43321 7.92384 5.45364 7.87453C5.47407 7.82521 5.48458 7.77236 5.48458 7.71898C5.48458 7.6656 5.47407 7.61274 5.45364 7.56342C5.43321 7.51411 5.40327 7.4693 5.36553 7.43155L4.33213 6.39866L4.97654 5.75425L6.00943 6.78765C6.08566 6.86388 6.18905 6.9067 6.29686 6.9067C6.40466 6.9067 6.50805 6.86388 6.58428 6.78765C6.66051 6.71142 6.70333 6.60803 6.70333 6.50023C6.70333 6.39242 6.66051 6.28903 6.58428 6.2128L5.55088 5.17991L7.10936 3.62144L9.37877 5.89085L5.11315 10.1565Z" fill="#188C43"/>
</svg>
